<?xml version="1.0" encoding="utf-8"?><svg xmlns="http://www.w3.org/2000/svg" xmlns:xlink="http://www.w3.org/1999/xlink"><symbol viewBox="0 0 95.939 95.939" id="close" xmlns="http://www.w3.org/2000/svg"><path d="M62.819 47.97l32.533-32.534a2 2 0 0 0 0-2.828L83.333.586a2.002 2.002 0 0 0-2.828 0L47.97 33.121 15.435.586c-.75-.75-2.078-.75-2.828 0L.587 12.608a2 2 0 0 0 0 2.828L33.121 47.97.587 80.504a2 2 0 0 0 0 2.828l12.02 12.021a2 2 0 0 0 2.828 0L47.97 62.818l32.535 32.535a2 2 0 0 0 2.828 0l12.02-12.021a2 2 0 0 0 0-2.828L62.819 47.97z"/></symbol><symbol viewBox="0 0 512 512" id="fire" xmlns="http://www.w3.org/2000/svg"><path d="M446.906 299.769c-5.865-76.359-41.417-124.21-72.781-166.436C345.083 94.241 320 60.483 320 10.685c0-4-2.24-7.656-5.792-9.489-3.563-1.844-7.844-1.542-11.083.812-47.104 33.706-86.406 90.515-100.135 144.719-9.531 37.737-10.792 80.161-10.969 108.18-43.5-9.291-53.354-74.359-53.458-75.068a10.72 10.72 0 0 0-5.552-7.916c-3.031-1.583-6.594-1.698-9.667-.177-2.281 1.104-55.99 28.394-59.115 137.355-.219 3.625-.229 7.261-.229 10.896 0 105.857 86.135 191.987 192 191.987.146.01.302.031.427 0h.135C362.167 511.681 448 425.667 448 319.997c0-5.323-1.094-20.228-1.094-20.228zM256 490.652c-35.292 0-64-30.581-64-68.172 0-1.281-.01-2.573.083-4.156.427-15.853 3.438-26.675 6.74-33.873 6.188 13.291 17.25 25.509 35.219 25.509a10.66 10.66 0 0 0 10.667-10.666c0-15.186.313-32.706 4.094-48.518 3.365-14.02 11.406-28.936 21.594-40.893 4.531 15.52 13.365 28.081 21.99 40.341 12.344 17.54 25.104 35.675 27.344 66.6.135 1.833.271 3.677.271 5.656-.002 37.59-28.71 68.172-64.002 68.172z"/></symbol><symbol viewBox="0 0 512 512" id="mute" xmlns="http://www.w3.org/2000/svg"><path d="M506.041 291.806l-35.844-35.844 35.844-35.844c7.808-7.807 7.807-20.465 0-28.273s-20.465-7.808-28.273 0l-35.844 35.844-35.844-35.844c-7.807-7.808-20.465-7.807-28.273 0s-7.808 20.465 0 28.273l35.844 35.844-35.844 35.844c-7.808 7.807-7.808 20.465 0 28.273 3.903 3.903 9.019 5.856 14.136 5.856s10.233-1.952 14.136-5.856l35.844-35.844 35.844 35.844c3.903 3.903 9.019 5.856 14.136 5.856s10.233-1.952 14.136-5.856c7.81-7.807 7.81-20.465.002-28.273zM295.166 4.873C272.465-4.699 247.404.04 229.765 17.24c-.415.405-.812.827-1.19 1.266l-113.27 131.498H80.071c-44.094 0-79.968 35.874-79.968 79.968v51.979c0 44.094 35.874 79.968 79.968 79.968h35.235l113.27 131.498c.378.439.775.862 1.19 1.266 11.658 11.367 26.532 17.317 41.826 17.316 7.932 0 15.978-1.601 23.743-4.875 22.596-9.527 36.633-30.695 36.633-55.242 0-11.042-8.95-19.992-19.992-19.992-11.042 0-19.992 8.95-19.992 19.992 0 12.306-9.325 17.194-12.183 18.399-2.855 1.203-12.716 4.422-21.584-3.716L139.618 328.881a19.99 19.99 0 0 0-15.147-6.944h-44.4c-22.047 0-39.984-17.937-39.984-39.984v-51.979c0-22.047 17.937-39.984 39.984-39.984h44.4a19.995 19.995 0 0 0 15.147-6.944L258.216 45.361c8.772-8.045 18.576-4.84 21.415-3.644 2.898 1.221 12.353 6.176 12.353 18.615v291.592c0 11.042 8.95 19.992 19.992 19.992s19.992-8.95 19.992-19.992V60.332c.001-24.637-14.101-45.887-36.802-55.459z"/></symbol><symbol viewBox="0 0 64 64" id="share" xmlns="http://www.w3.org/2000/svg"><path d="M63.386 16.193l.002-.002a2.359 2.359 0 0 0 .405-.688c.032-.076.053-.148.076-.225.058-.191.094-.389.106-.596.006-.076.018-.148.016-.226 0-.04.01-.076.008-.115a2.601 2.601 0 0 0-.136-.687c-.006-.023-.022-.041-.03-.064a2.441 2.441 0 0 0-.363-.645c-.021-.027-.028-.063-.05-.09L53.109.709c-.789-.93-2.084-.948-2.894-.037-.808.91-.823 2.402-.032 3.334l5.558 6.549c-8.121-1.076-16.104.633-16.481.717C14.614 15.739-2.827 38.499.38 62.008.539 63.172 1.408 64 2.399 64c.106 0 .212-.009.32-.027 1.116-.203 1.878-1.409 1.704-2.696-2.857-20.94 13.056-41.282 35.537-45.358.103-.024 8.351-1.794 16.117-.574L47.5 20.438c-1.005.598-1.398 2.02-.881 3.177.516 1.159 1.748 1.608 2.756 1.017l13.52-8.028c.183-.111.347-.25.491-.411z"/></symbol><symbol viewBox="0 0 512 512" id="sound" xmlns="http://www.w3.org/2000/svg"><path d="M295.166 4.873C272.465-4.699 247.404.04 229.765 17.24c-.415.405-.812.827-1.19 1.266l-113.27 131.498H80.071c-44.094 0-79.968 35.874-79.968 79.968v51.979c0 44.094 35.874 79.968 79.968 79.968h35.235l113.27 131.498c.378.439.775.862 1.19 1.266 11.658 11.367 26.532 17.317 41.826 17.316 7.932 0 15.978-1.601 23.743-4.875 22.596-9.527 36.633-30.695 36.633-55.242 0-11.042-8.95-19.992-19.992-19.992-11.042 0-19.992 8.95-19.992 19.992 0 12.306-9.325 17.194-12.183 18.399-2.855 1.203-12.716 4.422-21.584-3.716L139.618 328.881a19.99 19.99 0 0 0-15.147-6.944h-44.4c-22.047 0-39.984-17.937-39.984-39.984v-51.979c0-22.047 17.937-39.984 39.984-39.984h44.4a19.995 19.995 0 0 0 15.147-6.944L258.216 45.361c8.772-8.045 18.576-4.84 21.415-3.644 2.898 1.221 12.353 6.176 12.353 18.615v291.592c0 11.042 8.95 19.992 19.992 19.992s19.992-8.95 19.992-19.992V60.332c.002-24.637-14.101-45.887-36.802-55.459zm121.346 308.611l.459-.842c5.228-9.59 14.96-27.439 14.96-56.675 0-30.328-10.53-48.906-15.59-57.835-5.446-9.605-17.644-12.98-27.251-7.535-9.605 5.445-12.979 17.645-7.535 27.251 4.138 7.3 10.392 18.334 10.392 38.119 0 19.044-6.067 30.172-10.081 37.536l-.49.898c-5.27 9.702-1.676 21.84 8.026 27.11a19.897 19.897 0 0 0 9.524 2.428c7.091 0 13.962-3.783 17.586-10.455z"/><path d="M445.999 98.339c-7.845-7.77-20.504-7.71-28.273.135-7.77 7.845-7.71 20.503.135 28.273 34.857 34.526 54.053 80.389 54.053 129.139 0 48.85-19.196 94.768-54.053 129.294-7.845 7.77-7.905 20.429-.135 28.273a19.927 19.927 0 0 0 14.204 5.923 19.927 19.927 0 0 0 14.068-5.789c42.496-42.092 65.898-98.099 65.898-157.702.001-59.503-23.401-115.454-65.897-157.546z"/></symbol></svg>